<?xml version="1.0" encoding="UTF-8" standalone="no"?>
<!DOCTYPE svg PUBLIC "-//W3C//DTD SVG 1.1//EN" "http://www.w3.org/Graphics/SVG/1.1/DTD/svg11.dtd">
<svg width="100%" height="100%" viewBox="0 0 129 129" version="1.1" xmlns="http://www.w3.org/2000/svg" xmlns:xlink="http://www.w3.org/1999/xlink" xml:space="preserve" xmlns:serif="http://www.serif.com/" style="fill-rule:evenodd;clip-rule:evenodd;stroke-linecap:round;stroke-linejoin:round;stroke-miterlimit:1.5;">
    <g transform="matrix(1,0,0,1,-490,-544)">
        <g id="value_5" transform="matrix(1,0,0,1,490.579,544.612)">
            <rect x="0" y="0" width="128" height="128" style="fill:none;"/>
            <g transform="matrix(0.23047,0,0,0.23047,49.2499,49.2499)">
                <path d="M128,12.8L128,115.2C128,122.265 122.265,128 115.2,128L12.8,128C5.735,128 0,122.265 0,115.2L0,12.8C0,5.735 5.735,0 12.8,0L115.2,0C122.265,0 128,5.735 128,12.8Z" style="fill:rgb(13,121,242);stroke:rgb(13,121,242);stroke-width:18.08px;"/>
            </g>
            <g transform="matrix(0.250001,0,0,0.250001,-25.7119,49.9193)">
                <g transform="matrix(92.2337,0,0,92.2337,388.772,92.5726)">
                </g>
                <text x="334.631px" y="92.573px" style="font-family:'Bonoco2023', 'Bonoco 2023';font-style:italic;font-size:92.234px;fill:white;">5</text>
            </g>
        </g>
    </g>
</svg>
